<?xml version="1.0" encoding="UTF-8"?>
<svg version="1.1" xmlns="http://www.w3.org/2000/svg" width="297" height="286">
<path d="M0 0 C98.01 0 196.02 0 297 0 C297 94.38 297 188.76 297 286 C198.99 286 100.98 286 0 286 C0 191.62 0 97.24 0 0 Z " fill="#141414" transform="translate(0,0)"/>
<path d="M0 0 C1.71416077 0.00094672 3.42851019 0.03466732 5.14160156 0.09521484 C6.49816864 0.10794937 6.49816864 0.10794937 7.88214111 0.12094116 C10.76672213 0.1544915 13.64849277 0.22977159 16.53222656 0.30615234 C18.4892174 0.33624994 20.44625212 0.3636261 22.40332031 0.38818359 C27.19736958 0.45428803 31.98932188 0.55781948 36.78222656 0.68115234 C35.02296585 4.92386416 33.19265542 8.91717881 30.84863281 12.87646484 C30.00812378 14.30502808 30.00812378 14.30502808 29.15063477 15.76245117 C28.25671021 17.26908325 28.25671021 17.26908325 27.34472656 18.80615234 C26.07830786 20.95802918 24.81269722 23.11038177 23.54785156 25.26318359 C22.91427734 26.34035645 22.28070313 27.4175293 21.62792969 28.52734375 C18.91507771 33.16287575 16.25127765 37.82569376 13.59472656 42.49365234 C5.82568792 56.12679044 -2.05466405 69.69371712 -9.96777344 83.24365234 C-20.05101775 100.51294433 -30.03437737 117.83930689 -39.9453125 135.20800781 C-47.78422076 148.93795842 -55.74520396 162.59654856 -63.72265625 176.24633789 C-66.9341985 181.74700487 -70.12987335 187.25632932 -73.30371094 192.77880859 C-73.81170227 193.66213615 -73.81170227 193.66213615 -74.32995605 194.56330872 C-75.97073592 197.41688705 -77.60920664 200.27172624 -79.24414062 203.12866211 C-79.83614258 204.15918701 -80.42814453 205.18971191 -81.03808594 206.25146484 C-81.5564502 207.15654785 -82.07481445 208.06163086 -82.60888672 208.99414062 C-83.13981934 209.88085449 -83.67075195 210.76756836 -84.21777344 211.68115234 C-84.65546051 212.71252319 -85.09314758 213.74389404 -85.5440979 214.80651855 C-88.63931728 218.13438018 -89.28451184 218.14174904 -93.63409424 218.40267944 C-95.95785931 218.42011391 -98.2820129 218.40402977 -100.60546875 218.36230469 C-101.87401703 218.36318085 -103.14256531 218.36405701 -104.44955444 218.36495972 C-107.92492395 218.36668105 -111.39905056 218.33141196 -114.8741312 218.28951597 C-118.50690467 218.25200318 -122.13970678 218.24848324 -125.77264404 218.24136353 C-132.65056647 218.22271604 -139.52791655 218.17348118 -146.40558696 218.11326659 C-154.23616317 218.04619773 -162.06676675 218.01321165 -169.89755869 217.98309398 C-186.00463197 217.92038135 -202.11112966 217.81484919 -218.21777344 217.68115234 C-217.47622303 213.52182263 -216.23976602 210.58356757 -214.11230469 206.91162109 C-213.46551758 205.78763916 -212.81873047 204.66365723 -212.15234375 203.50561523 C-211.44514551 202.29320179 -210.73778472 201.08088314 -210.03027344 199.86865234 C-209.30280199 198.61044457 -208.57592136 197.35189502 -207.84960938 196.09301758 C-205.64856135 192.28346936 -203.43425114 188.48173761 -201.21777344 184.68115234 C-200.57952637 183.58512695 -199.9412793 182.48910156 -199.28369141 181.35986328 C-196.93534745 177.32855 -194.58498157 173.29844311 -192.22875977 169.27172852 C-188.51930306 162.93009502 -184.85248671 156.5658886 -181.21777344 150.18115234 C-176.99160704 142.75883782 -172.71599619 135.36717811 -168.40527344 127.99365234 C-161.59419362 116.34304682 -154.84503675 104.65743261 -148.10888672 92.96337891 C-144.3574932 86.45243978 -140.60086349 79.9445204 -136.84521484 73.43603516 C-133.70595098 67.99529898 -130.56795847 62.55383757 -127.43261719 57.11083984 C-119.61908484 43.55004725 -111.76408374 30.01428722 -103.86621094 16.50244141 C-100.98055901 11.56366865 -98.09931395 6.6223247 -95.21777344 1.68115234 C-91.5047325 2.91883266 -91.26934161 3.85636492 -89.43261719 7.21240234 C-88.90724365 8.15937988 -88.38187012 9.10635742 -87.84057617 10.08203125 C-87.28442627 11.10474121 -86.72827637 12.12745117 -86.15527344 13.18115234 C-84.97940282 15.3042203 -83.80231056 17.42661208 -82.62402344 19.54833984 C-82.04394531 20.59731445 -81.46386719 21.64628906 -80.86621094 22.72705078 C-78.69132171 26.62458628 -76.43701655 30.47051209 -74.15527344 34.30615234 C-70.28564815 40.84777635 -66.45229602 47.40959151 -62.65527344 53.99365234 C-62.1298999 54.89615723 -61.60452637 55.79866211 -61.06323242 56.72851562 C-60.57669189 57.57526855 -60.09015137 58.42202148 -59.58886719 59.29443359 C-59.15501709 60.0450708 -58.72116699 60.79570801 -58.27416992 61.5690918 C-57.20029353 63.71610003 -56.44893394 65.28787641 -56.21777344 67.68115234 C-57.18652344 69.96435547 -57.18652344 69.96435547 -58.71777344 72.46240234 C-59.27247314 73.3819873 -59.82717285 74.30157227 -60.39868164 75.24902344 C-60.99898193 76.21662598 -61.59928223 77.18422852 -62.21777344 78.18115234 C-63.41977773 80.16281317 -64.62160193 82.14458325 -65.82324219 84.12646484 C-66.4076709 85.08069336 -66.99209961 86.03492187 -67.59423828 87.01806641 C-69.61875739 90.33888662 -71.5811495 93.6905843 -73.53027344 97.05615234 C-74.32884766 98.42900391 -74.32884766 98.42900391 -75.14355469 99.82958984 C-75.49804688 100.44060547 -75.85253906 101.05162109 -76.21777344 101.68115234 C-79.33044671 97.99308512 -81.81609248 94.1358215 -84.15527344 89.93115234 C-84.50154785 89.31860596 -84.84782227 88.70605957 -85.20458984 88.07495117 C-87.59726807 83.83287866 -89.93370922 79.56114795 -92.20996094 75.25537109 C-93.14006951 73.5066054 -93.14006951 73.5066054 -95.21777344 72.68115234 C-95.49524414 73.40971436 -95.77271484 74.13827637 -96.05859375 74.88891602 C-97.14593009 77.50809582 -98.36674359 79.89237977 -99.76464844 82.35693359 C-100.27229736 83.25436279 -100.77994629 84.15179199 -101.30297852 85.07641602 C-101.85236084 86.039104 -102.40174316 87.00179199 -102.96777344 87.99365234 C-103.54487061 89.00983643 -104.12196777 90.02602051 -104.71655273 91.07299805 C-109.3409165 99.19448623 -114.04347774 107.2693065 -118.7668457 115.33349609 C-124.05771477 124.37647009 -129.25696996 133.4701362 -134.44506836 142.57226562 C-138.79202149 150.19702263 -143.16458419 157.80605158 -147.59350586 165.38354492 C-150.91520435 171.08806821 -154.07727014 176.87518551 -157.21777344 182.68115234 C-130.43206391 186.21029781 -130.43206391 186.21029781 -105.71386719 179.50097656 C-100.46360937 173.6930329 -98.01517258 166.66948091 -95.56103516 159.33398438 C-93.35979314 153.34798238 -90.02620656 148.10879118 -86.71777344 142.68115234 C-85.46326753 140.52045155 -84.21456621 138.35637023 -82.97167969 136.18896484 C-82.35309082 135.11678711 -81.73450195 134.04460937 -81.09716797 132.93994141 C-79.20797178 129.66415669 -77.32013235 126.38759342 -75.43261719 123.11083984 C-68.81636227 111.62808337 -62.17387333 100.16154333 -55.48706055 88.71972656 C-50.56859089 80.2977368 -45.6944758 71.85058702 -40.82763672 63.39868164 C-36.04273145 55.09487988 -31.21082228 46.81932568 -26.36865234 38.54882812 C-21.65094328 30.46996983 -17.0384949 22.33394043 -12.47900391 14.16479492 C-11.72707764 12.82324341 -11.72707764 12.82324341 -10.95996094 11.45458984 C-10.30809814 10.28549072 -10.30809814 10.28549072 -9.64306641 9.09277344 C-9.17271973 8.29693848 -8.70237305 7.50110352 -8.21777344 6.68115234 C-7.69425293 5.60478516 -7.17073242 4.52841797 -6.63134766 3.41943359 C-4.00021826 0.43432866 -3.71122448 0.26617704 0 0 Z " fill="#FCFCFC" transform="translate(238.2177734375,38.31884765625)"/>
<path d="M0 0 C0.66 0 1.32 0 2 0 C3.27416992 1.79052734 3.27416992 1.79052734 4.73046875 4.3359375 C5.27823975 5.28452637 5.82601074 6.23311523 6.39038086 7.21044922 C6.98343018 8.25475098 7.57647949 9.29905273 8.1875 10.375 C8.80826416 11.45410645 9.42902832 12.53321289 10.06860352 13.64501953 C11.38670445 15.93744084 12.70220028 18.23114447 14.01367188 20.52734375 C16.52204265 24.91714567 19.05455268 29.29293807 21.58520508 33.66992188 C24.08553215 37.99630829 26.57951941 42.32633568 29.07373047 46.65625 C31.73034016 51.26777425 34.38829557 55.8785214 37.04711914 60.48876953 C38.30312898 62.66664882 39.55884939 64.84469506 40.81420898 67.02294922 C41.39114502 68.02342285 41.96808105 69.02389648 42.5625 70.0546875 C43.12195313 71.02631836 43.68140625 71.99794922 44.2578125 72.99902344 C45.4911778 75.12353665 46.73725904 77.24069131 47.9921875 79.35253906 C48.63414062 80.4350293 49.27609375 81.51751953 49.9375 82.6328125 C50.52402344 83.6139502 51.11054688 84.59508789 51.71484375 85.60595703 C53 88 53 88 53 90 C39.47 90 25.94 90 12 90 C8.720625 84.3075 8.720625 84.3075 5.375 78.5 C-0.58043581 68.16686706 -6.57038658 57.85495644 -12.60595703 47.56835938 C-13.15493652 46.63056641 -13.70391602 45.69277344 -14.26953125 44.7265625 C-14.75010986 43.90752441 -15.23068848 43.08848633 -15.72583008 42.24462891 C-19.01801846 36.44497763 -19.01801846 36.44497763 -18.91015625 33.78125 C-17.58473098 29.73102342 -15.54643802 26.19141916 -13.4375 22.5 C-12.76847656 21.31591553 -12.76847656 21.31591553 -12.0859375 20.10791016 C-3.11174644 4.3167855 -3.11174644 4.3167855 0 0 Z " fill="#FBFBFB" transform="translate(216,166)"/>
<path d="M0 0 C4 4.75 4 4.75 4 7 C2.68 6.67 1.36 6.34 0 6 C-0.38218767 4.34385343 -0.71395102 2.67542976 -1 1 C-0.67 0.67 -0.34 0.34 0 0 Z " fill="#272727" transform="translate(209,223)"/>
<path d="M0 0 C4.42857143 5.14285714 4.42857143 5.14285714 5 9 C3.0625 8.4375 3.0625 8.4375 1 7 C0.25 3.375 0.25 3.375 0 0 Z " fill="#2B2B2B" transform="translate(213,230)"/>
<path d="M0 0 C0.33 0.99 0.66 1.98 1 3 C0.01 3.99 -0.98 4.98 -2 6 C-2.66 4.35 -3.32 2.7 -4 1 C-2.68 0.67 -1.36 0.34 0 0 Z " fill="#1E1E1E" transform="translate(239,194)"/>
</svg>
